<svg id="Layer_1" data-name="Layer 1" xmlns="http://www.w3.org/2000/svg" width="1512.98" height="287.03" viewBox="0 0 1512.98 287.03">
  <defs>
    <style>
      .cls-1 {
        fill: #036aab;
      }

      .cls-2 {
        fill: #7eaa40;
      }

      .cls-3 {
        font-size: 210px;
        fill: #2b60ad;
        font-family: Comfortaa-Bold, Comfortaa;
        font-weight: 700;
        letter-spacing: -0.03em;
      }
    </style>
  </defs>
  <title>logoSVG</title>
  <path class="cls-1" d="M510.52,990.17a56.27,56.27,0,0,1-2.78,8,33.51,33.51,0,0,1,6.84,19.7c0,21.48-22.89,39.93-52,43.64v-50.17h-16v50.89h-11.5v-42.59h-16v42.59h-11.5v-34.29h-16v34.29h-11.5v-26h-16v26h-11.5v-17.69h-16v17.69h-11.5v-9.38h-16v8.66c-29.07-3.71-52-22.16-52-43.64,0-24,28.68-44.35,62.62-44.35H450.4c3.61-6.26,9.26-11.73,16.72-16.18l5.08-6.71a109.39,109.39,0,0,0-79.24-42l-.1-26.27a13.91,13.91,0,1,0-13.91,0l.09,26.2a109.48,109.48,0,0,0-83,46.76c-34.44,8-59.74,33-59.74,62.48s25.28,54.42,59.69,62.48a110.22,110.22,0,0,0,44.61,37.22,52,52,0,0,1-25.38,24.63c22.61,7,87-15.65,87-15.65l-.64-.34a109.59,109.59,0,0,0,74.23-45.86c34.42-8.06,59.7-33.06,59.7-62.48,0-14.5-6.16-27.92-16.52-38.78Z" transform="translate(-236.27 -856.49)"/>
  <path class="cls-2" d="M509.1,983.41l9.79-12.94-3.52-2.66a109.74,109.74,0,0,0,20.7-15.51c8.76,13.37,11.72,34.67,11.72,34.67,16.05-20.59,9.35-57.45,9.35-57.45l-1.2-2.84a136,136,0,0,0,8.73-18.59c8.41-21.92,5.43-39.61,5.43-39.61a1.9,1.9,0,0,0-2-1.54s-17.84,1.94-36.65,16a135.76,135.76,0,0,0-15.52,13.45l-3.06-.38s-37.3,3.56-52.75,24.6c0,0,21.3-2.94,36.54,1.86a110.11,110.11,0,0,0-9.3,24.13l-3.52-2.66L474,956.85l2.16,1.64c-9.18,4.15-19.88,11.34-23.75,23.18,0,0,18.2-9.84,24.54-9.26,0,0-26,18.23-26.44,26.29,0,0,20.14-17,29.61-17.81,0,0-10.86,11-11,18.82C476.71,997.47,484.3,984,484.3,984c1.82,9.33-9.09,33.33-9.09,33.33,7.61-2.65,18.11-32.58,18.11-32.58,2.29,5.94-2.24,26.13-2.24,26.13,10.34-6.94,14.36-19.18,15.86-29.15Zm36.69-84.93a11,11,0,1,1,15.41-2.13A11,11,0,0,1,545.79,898.48Z" transform="translate(-236.27 -856.49)"/>
  <text class="cls-3" transform="translate(367.36 223.85)">relations<tspan class="cls-2" x="851.47" y="0">AI</tspan></text>
  <text x="-236.27" y="-856.49"/>  <text x="-236.27" y="-856.49"/>  <text x="-236.27" y="-856.49"/></svg>
